<?xml version="1.0" encoding="UTF-8"?>
<svg id="OBJECTS" xmlns="http://www.w3.org/2000/svg" viewBox="0 0 25 25">
  <defs>
    <style>
      .cls-1 {
        fill: #fff;
      }
    </style>
  </defs>
  <path class="cls-1" d="m17.09,6.92c-.56,0-1.02.46-1.02,1.02s.46,1.02,1.02,1.02,1.02-.46,1.02-1.02-.46-1.02-1.02-1.02Z"/>
  <path class="cls-1" d="m12.57,8.23c-2.36,0-4.27,1.92-4.27,4.27s1.92,4.27,4.27,4.27,4.27-1.92,4.27-4.27-1.92-4.27-4.27-4.27Zm0,7.01c-1.51,0-2.74-1.23-2.74-2.74s1.23-2.74,2.74-2.74,2.74,1.23,2.74,2.74-1.23,2.74-2.74,2.74Z"/>
  <path class="cls-1" d="m15.96,21.18h-6.93c-2.87,0-5.21-2.34-5.21-5.21v-6.93c0-2.87,2.34-5.21,5.21-5.21h6.93c2.87,0,5.21,2.34,5.21,5.21v6.93c0,2.87-2.34,5.21-5.21,5.21Zm-6.93-15.72c-1.97,0-3.58,1.61-3.58,3.58v6.93c0,1.97,1.61,3.58,3.58,3.58h6.93c1.97,0,3.58-1.61,3.58-3.58v-6.93c0-1.97-1.61-3.58-3.58-3.58h-6.93Z"/>
</svg>