<?xml version="1.0" encoding="UTF-8"?>
<svg id="Capa_1" data-name="Capa 1" xmlns="http://www.w3.org/2000/svg" version="1.1" viewBox="0 0 16 16">
  <defs>
    <style>
      .cls-1 {
        fill: #fff;
        stroke-width: 0px;
      }
    </style>
  </defs>
  <path class="cls-1" d="M6,6.2v9c0,.4.3.8.8.8s.8-.3.8-.8v-4.8c0-.3.2-.5.5-.5s.5.2.5.5v4.8c0,.4.3.8.8.8s.8-.3.8-.8V6.8c0-.1.1-.2.2-.2s.2.1.2.2v2.5c0,.4.3.8.8.8s.8-.3.8-.8v-2.8c0-1.7-1.3-3-3-3h-2.8c-.2,0-.3,0-.4-.1l-.3-.2c-.3-.1-.5-.4-.5-.7V.8c0-.4-.3-.8-.8-.8s-.8.3-.8.8v2.1c0,.7.4,1.4,1,1.7l1,.5c.3.3.5.8.5,1.2"/>
  <path class="cls-1" d="M8,3c.8,0,1.5-.7,1.5-1.5s-.7-1.5-1.5-1.5-1.5.7-1.5,1.5.7,1.5,1.5,1.5"/>
</svg>