<?xml version="1.0" encoding="UTF-8"?>
<svg id="OBJECTS" xmlns="http://www.w3.org/2000/svg" viewBox="0 0 25 25">
  <defs>
    <style>
      .cls-1 {
        fill: #fff;
      }
    </style>
  </defs>
  <path class="cls-1" d="m20.05,5.15H4.95c-1.05,0-1.91.86-1.91,1.91v7.42c0,1.05.86,1.91,1.91,1.91h11.48l4.14,3.46-.5-3.46c1.06-.01,1.9-.86,1.9-1.91v-7.42c0-1.05-.85-1.91-1.91-1.91Zm-7.14,8.95c-.14.14-.33.21-.56.21s-.42-.07-.55-.21c-.14-.13-.22-.31-.22-.52s.08-.38.22-.52c.14-.14.33-.21.55-.21.23,0,.42.07.56.21.14.13.22.31.22.52s-.08.38-.22.52Zm1.48-4.24c-.12.24-.33.5-.64.8l-.38.36c-.24.23-.37.5-.42.81v.29h-1.23c0-.44.05-.79.16-1.05.1-.26.3-.53.58-.78.3-.25.48-.46.58-.63.09-.15.14-.33.14-.5,0-.54-.25-.8-.75-.8-.23,0-.42.07-.56.21-.14.15-.22.35-.22.6h-1.38c.01-.6.2-1.08.59-1.43.38-.34.9-.5,1.57-.5s1.2.15,1.57.48c.36.33.55.78.55,1.37,0,.27-.05.53-.18.77Z"/>
</svg>