<?xml version="1.0" encoding="UTF-8"?>
<svg id="Capa_1" data-name="Capa 1" xmlns="http://www.w3.org/2000/svg" viewBox="0 0 25 25">
  <defs>
    <style>
      .cls-1 {
        fill: #fff;
        stroke-width: 0px;
      }
    </style>
  </defs>
  <path class="cls-1" d="M19.95,7.37c-1.98-.42-3.46-2.08-3.64-4.1v-.43h-3.33v13.21c0,1.55-1.26,2.79-2.81,2.79-.87,0-1.69-.41-2.22-1.1h0s0,0,0,0c-.93-1.23-.69-2.98.54-3.92.72-.55,1.67-.71,2.54-.44v-3.38c-3.34-.46-6.43,1.87-6.89,5.22-.26,1.87.36,3.76,1.68,5.11,2.36,2.42,6.23,2.46,8.65.1,1.18-1.15,1.84-2.73,1.84-4.37v-6.75c1.34.96,2.96,1.48,4.61,1.47v-3.31c-.33,0-.65-.03-.97-.1Z"/>
</svg>